LibreBaskerville-Bold.ufo
<glyph name="numbersign" format="1">
  <advance width="702"/>
  <unicode hex="0023"/>
  <outline>
    <contour>
      <point x="635" y="310" type="line"/>
      <point x="491" y="310" type="line"/>
      <point x="514" y="470" type="line"/>
      <point x="655" y="470" type="line"/>
      <point x="666" y="530" type="line"/>
      <point x="525" y="530" type="line"/>
      <point x="560" y="770" type="line"/>
      <point x="487" y="770" type="line"/>
      <point x="452" y="530" type="line"/>
      <point x="303" y="530" type="line"/>
      <point x="339" y="770" type="line"/>
      <point x="266" y="770" type="line"/>
      <point x="230" y="530" type="line"/>
      <point x="79" y="530" type="line"/>
      <point x="69" y="470" type="line"/>
      <point x="219" y="470" type="line"/>
      <point x="196" y="310" type="line"/>
      <point x="47" y="310" type="line"/>
      <point x="36" y="250" type="line"/>
      <point x="183" y="250" type="line"/>
      <point x="144" y="0" type="line"/>
      <point x="217" y="0" type="line"/>
      <point x="256" y="250" type="line"/>
      <point x="405" y="250" type="line"/>
      <point x="369" y="0" type="line"/>
      <point x="441" y="0" type="line"/>
      <point x="479" y="250" type="line"/>
      <point x="625" y="250" type="line"/>
    </contour>
    <contour>
      <point x="439" y="470" type="line"/>
      <point x="417" y="310" type="line"/>
      <point x="269" y="310" type="line"/>
      <point x="292" y="470" type="line"/>
    </contour>
  </outline>
</glyph>
<glyph name="percent" format="1">
  <advance width="712"/>
  <unicode hex="0025"/>
  <outline>
    <contour>
      <point x="682" y="770" type="line"/>
      <point x="611" y="770" type="line"/>
      <point x="31" y="0" type="line"/>
      <point x="111" y="0" type="line"/>
    </contour>
    <component base="zerosuperior" xOffset="58"/>
    <component base="zeroinferior" xOffset="341"/>
  </outline>
</glyph>
<glyph name="slash" format="1">
  <advance width="477"/>
  <unicode hex="002F"/>
  <outline>
    <contour>
      <point x="455" y="770" type="line"/>
      <point x="394" y="770" type="line"/>
      <point x="23" y="0" type="line"/>
      <point x="94" y="0" type="line"/>
    </contour>
  </outline>
</glyph>
<glyph name="eight" format="1">
  <advance width="635"/>
  <unicode hex="0038"/>
  <outline>
    <contour>
      <point x="342" y="314" type="line" smooth="yes"/>
      <point x="430" y="276"/>
      <point x="470" y="234"/>
      <point x="470" y="179" type="curve" smooth="yes"/>
      <point x="470" y="102"/>
      <point x="406" y="46"/>
      <point x="316" y="46" type="curve" smooth="yes"/>
      <point x="230" y="46"/>
      <point x="175" y="104"/>
      <point x="175" y="194" type="curve" smooth="yes"/>
      <point x="175" y="258"/>
      <point x="205" y="313"/>
      <point x="260" y="350" type="curve"/>
    </contour>
    <contour>
      <point x="452" y="448" type="curve"/>
      <point x="521" y="497"/>
      <point x="550" y="542"/>
      <point x="550" y="603" type="curve" smooth="yes"/>
      <point x="550" y="657"/>
      <point x="525" y="706"/>
      <point x="480" y="738" type="curve" smooth="yes"/>
      <point x="436" y="765"/>
      <point x="377" y="780"/>
      <point x="313" y="780" type="curve" smooth="yes"/>
      <point x="240" y="780"/>
      <point x="178" y="761"/>
      <point x="135" y="724" type="curve" smooth="yes"/>
      <point x="91" y="686"/>
      <point x="68" y="635"/>
      <point x="68" y="575" type="curve" smooth="yes"/>
      <point x="68" y="495"/>
      <point x="111" y="422"/>
      <point x="186" y="371" type="curve"/>
      <point x="98" y="325"/>
      <point x="50" y="257"/>
      <point x="50" y="181" type="curve" smooth="yes"/>
      <point x="50" y="72"/>
      <point x="164" y="-10"/>
      <point x="314" y="-10" type="curve" smooth="yes"/>
      <point x="475" y="-10"/>
      <point x="590" y="86"/>
      <point x="590" y="220" type="curve" smooth="yes"/>
      <point x="590" y="309"/>
      <point x="539" y="393"/>
    </contour>
    <contour>
      <point x="310" y="496" type="line" smooth="yes"/>
      <point x="227" y="528"/>
      <point x="183" y="570"/>
      <point x="183" y="616" type="curve" smooth="yes"/>
      <point x="183" y="678"/>
      <point x="237" y="725"/>
      <point x="308" y="725" type="curve" smooth="yes"/>
      <point x="382" y="725"/>
      <point x="438" y="666"/>
      <point x="438" y="588" type="curve" smooth="yes"/>
      <point x="438" y="544"/>
      <point x="417" y="501"/>
      <point x="378" y="469" type="curve"/>
    </contour>
  </outline>
</glyph>
<glyph name="C" format="1">
  <advance width="823"/>
  <unicode hex="0043"/>
  <outline>
    <contour>
      <point x="459" y="830" type="move" name="topcap"/>
    </contour>
    <contour>
      <point x="442" y="0" type="move" name="bottom"/>
    </contour>
    <contour>
      <point x="688" y="708" type="line"/>
      <point x="606" y="759"/>
      <point x="540" y="780"/>
      <point x="459" y="780" type="curve" smooth="yes"/>
      <point x="215" y="780"/>
      <point x="47" y="614"/>
      <point x="47" y="372" type="curve" smooth="yes"/>
      <point x="47" y="139"/>
      <point x="204" y="-10"/>
      <point x="447" y="-10" type="curve" smooth="yes"/>
      <point x="551" y="-10"/>
      <point x="640" y="19"/>
      <point x="714" y="79" type="curve"/>
      <point x="728" y="0" type="line"/>
      <point x="775" y="0" type="line"/>
      <point x="775" y="271" type="line"/>
      <point x="731" y="271" type="line"/>
      <point x="694" y="129"/>
      <point x="604" y="56"/>
      <point x="472" y="56" type="curve" smooth="yes"/>
      <point x="308" y="56"/>
      <point x="221" y="172"/>
      <point x="221" y="378" type="curve" smooth="yes"/>
      <point x="221" y="587"/>
      <point x="311" y="715"/>
      <point x="468" y="715" type="curve" smooth="yes"/>
      <point x="582" y="715"/>
      <point x="668" y="639"/>
      <point x="696" y="517" type="curve"/>
      <point x="736" y="517" type="line"/>
      <point x="756" y="770" type="line"/>
      <point x="707" y="770" type="line"/>
    </contour>
  </outline>
</glyph>
<glyph name="H" format="1">
  <advance width="945"/>
  <unicode hex="0048"/>
  <outline>
    <contour>
      <point x="498" y="830" type="move" name="topcap"/>
    </contour>
    <contour>
      <point x="498" y="0" type="move" name="bottom"/>
    </contour>
    <contour>
      <point x="805" y="161" type="line" smooth="yes"/>
      <point x="805" y="59"/>
      <point x="820" y="43"/>
      <point x="910" y="40" type="curve"/>
      <point x="910" y="0" type="line"/>
      <point x="543" y="0" type="line"/>
      <point x="543" y="40" type="line"/>
      <point x="641" y="43"/>
      <point x="658" y="60"/>
      <point x="658" y="154" type="curve" smooth="yes"/>
      <point x="658" y="363" type="line"/>
      <point x="287" y="363" type="line"/>
      <point x="287" y="161" type="line" smooth="yes"/>
      <point x="287" y="59"/>
      <point x="303" y="43"/>
      <point x="401" y="40" type="curve"/>
      <point x="401" y="0" type="line"/>
      <point x="35" y="0" type="line"/>
      <point x="35" y="40" type="line"/>
      <point x="125" y="43"/>
      <point x="140" y="60"/>
      <point x="140" y="154" type="curve" smooth="yes"/>
      <point x="140" y="616" type="line" smooth="yes"/>
      <point x="140" y="709"/>
      <point x="127" y="726"/>
      <point x="46" y="730" type="curve"/>
      <point x="46" y="770" type="line"/>
      <point x="391" y="770" type="line"/>
      <point x="391" y="730" type="line"/>
      <point x="301" y="727"/>
      <point x="287" y="710"/>
      <point x="287" y="609" type="curve" smooth="yes"/>
      <point x="287" y="425" type="line"/>
      <point x="658" y="425" type="line"/>
      <point x="658" y="616" type="line" smooth="yes"/>
      <point x="658" y="709"/>
      <point x="643" y="726"/>
      <point x="553" y="730" type="curve"/>
      <point x="553" y="770" type="line"/>
      <point x="899" y="770" type="line"/>
      <point x="899" y="730" type="line"/>
      <point x="818" y="727"/>
      <point x="805" y="710"/>
      <point x="805" y="609" type="curve" smooth="yes"/>
    </contour>
  </outline>
</glyph>
<glyph name="L" format="1">
  <advance width="755"/>
  <unicode hex="004C"/>
  <outline>
    <contour>
      <point x="226" y="830" type="move" name="topcap"/>
    </contour>
    <contour>
      <point x="410" y="0" type="move" name="bottom"/>
    </contour>
    <contour>
      <point x="724" y="0" type="line"/>
      <point x="35" y="0" type="line"/>
      <point x="35" y="40" type="line"/>
      <point x="124" y="43"/>
      <point x="140" y="60"/>
      <point x="140" y="154" type="curve" smooth="yes"/>
      <point x="140" y="616" type="line" smooth="yes"/>
      <point x="140" y="709"/>
      <point x="126" y="726"/>
      <point x="46" y="730" type="curve"/>
      <point x="46" y="770" type="line"/>
      <point x="391" y="770" type="line"/>
      <point x="391" y="730" type="line"/>
      <point x="301" y="727"/>
      <point x="287" y="710"/>
      <point x="287" y="609" type="curve" smooth="yes"/>
      <point x="287" y="190" type="line" smooth="yes"/>
      <point x="287" y="78"/>
      <point x="329" y="55"/>
      <point x="468" y="55" type="curve" smooth="yes"/>
      <point x="622" y="55"/>
      <point x="670" y="87"/>
      <point x="700" y="227" type="curve"/>
      <point x="740" y="227" type="line"/>
    </contour>
  </outline>
</glyph>
<glyph name="P" format="1">
  <advance width="717"/>
  <unicode hex="0050"/>
  <outline>
    <contour>
      <point x="700" y="556" type="curve" smooth="yes"/>
      <point x="700" y="696"/>
      <point x="594" y="770"/>
      <point x="392" y="770" type="curve" smooth="yes"/>
      <point x="46" y="770" type="line"/>
      <point x="46" y="730" type="line"/>
      <point x="127" y="726"/>
      <point x="140" y="709"/>
      <point x="140" y="616" type="curve" smooth="yes"/>
      <point x="140" y="154" type="line" smooth="yes"/>
      <point x="140" y="60"/>
      <point x="124" y="43"/>
      <point x="35" y="40" type="curve"/>
      <point x="35" y="0" type="line"/>
      <point x="432" y="0" type="line"/>
      <point x="432" y="40" type="line"/>
      <point x="308" y="40"/>
      <point x="287" y="57"/>
      <point x="287" y="159" type="curve" smooth="yes"/>
      <point x="287" y="335" type="line"/>
      <point x="372" y="335" type="line" smooth="yes"/>
      <point x="584" y="335"/>
      <point x="700" y="413"/>
    </contour>
    <contour>
      <point x="287" y="697" type="line" smooth="yes"/>
      <point x="287" y="707"/>
      <point x="294" y="714"/>
      <point x="305" y="714" type="curve" smooth="yes"/>
      <point x="382" y="714" type="line" smooth="yes"/>
      <point x="489" y="714"/>
      <point x="539" y="657"/>
      <point x="539" y="557" type="curve" smooth="yes"/>
      <point x="539" y="446"/>
      <point x="480" y="395"/>
      <point x="352" y="395" type="curve" smooth="yes"/>
      <point x="287" y="395" type="line"/>
    </contour>
  </outline>
</glyph>
<glyph name="Q" format="1">
  <advance width="949"/>
  <unicode hex="0051"/>
  <outline>
    <contour>
      <point x="471" y="780" type="curve" smooth="yes"/>
      <point x="230" y="780"/>
      <point x="46" y="605"/>
      <point x="46" y="377" type="curve" smooth="yes"/>
      <point x="46" y="165"/>
      <point x="209" y="-9"/>
      <point x="423" y="-27" type="curve"/>
      <point x="297" y="-98" type="line" smooth="yes"/>
      <point x="241" y="-129"/>
      <point x="224" y="-144"/>
      <point x="224" y="-167" type="curve" smooth="yes"/>
      <point x="224" y="-183"/>
      <point x="238" y="-195"/>
      <point x="261" y="-195" type="curve" smooth="yes"/>
      <point x="312" y="-195"/>
      <point x="324" y="-138"/>
      <point x="395" y="-138" type="curve" smooth="yes"/>
      <point x="499" y="-138"/>
      <point x="606" y="-260"/>
      <point x="754" y="-260" type="curve" smooth="yes"/>
      <point x="859" y="-260"/>
      <point x="939" y="-198"/>
      <point x="939" y="-115" type="curve" smooth="yes"/>
      <point x="939" y="-104"/>
      <point x="938" y="-89"/>
      <point x="935" y="-72" type="curve"/>
      <point x="898" y="-72" type="line"/>
      <point x="878" y="-125"/>
      <point x="844" y="-146"/>
      <point x="781" y="-146" type="curve" smooth="yes"/>
      <point x="669" y="-146"/>
      <point x="582" y="-86"/>
      <point x="468" y="-86" type="curve" smooth="yes"/>
      <point x="455" y="-86"/>
      <point x="438" y="-87"/>
      <point x="429" y="-88" type="curve"/>
      <point x="429" y="-84" type="line"/>
      <point x="454" y="-68"/>
      <point x="475" y="-57"/>
      <point x="534" y="-36" type="curve" smooth="yes"/>
      <point x="634" y="-1"/>
      <point x="668" y="15"/>
      <point x="712" y="43" type="curve" smooth="yes"/>
      <point x="833" y="121"/>
      <point x="904" y="241"/>
      <point x="904" y="378" type="curve" smooth="yes"/>
      <point x="904" y="603"/>
      <point x="713" y="780"/>
    </contour>
    <contour>
      <point x="471" y="30" type="curve" smooth="yes"/>
      <point x="316" y="30"/>
      <point x="220" y="162"/>
      <point x="220" y="375" type="curve" smooth="yes"/>
      <point x="220" y="586"/>
      <point x="315" y="715"/>
      <point x="471" y="715" type="curve" smooth="yes"/>
      <point x="629" y="715"/>
      <point x="730" y="583"/>
      <point x="730" y="375" type="curve" smooth="yes"/>
      <point x="730" y="166"/>
      <point x="628" y="30"/>
    </contour>
  </outline>
</glyph>
<glyph name="V" format="1">
  <advance width="805"/>
  <unicode hex="0056"/>
  <outline>
    <contour>
      <point x="278" y="610" type="line" smooth="yes"/>
      <point x="265" y="646"/>
      <point x="258" y="671"/>
      <point x="258" y="689" type="curve" smooth="yes"/>
      <point x="258" y="718"/>
      <point x="277" y="727"/>
      <point x="347" y="729" type="curve"/>
      <point x="347" y="770" type="line"/>
      <point x="-31" y="770" type="line"/>
      <point x="-31" y="729" type="line"/>
      <point x="47" y="729"/>
      <point x="77" y="700"/>
      <point x="129" y="574" type="curve" smooth="yes"/>
      <point x="368" y="-10" type="line"/>
      <point x="442" y="-10" type="line"/>
      <point x="705" y="649" type="line" smooth="yes"/>
      <point x="727" y="704"/>
      <point x="764" y="730"/>
      <point x="820" y="730" type="curve"/>
      <point x="820" y="770" type="line"/>
      <point x="536" y="770" type="line"/>
      <point x="536" y="730" type="line"/>
      <point x="608" y="730"/>
      <point x="626" y="723"/>
      <point x="626" y="691" type="curve" smooth="yes"/>
      <point x="626" y="662"/>
      <point x="619" y="636"/>
      <point x="568" y="505" type="curve" smooth="yes"/>
      <point x="438" y="172" type="line"/>
    </contour>
  </outline>
</glyph>
<glyph name="b" format="1">
  <advance width="674"/>
  <unicode hex="0062"/>
  <outline>
    <contour>
      <point x="225" y="282" type="line" smooth="yes"/>
      <point x="225" y="331"/>
      <point x="233" y="372"/>
      <point x="248" y="403" type="curve" smooth="yes"/>
      <point x="271" y="450"/>
      <point x="314" y="477"/>
      <point x="362" y="477" type="curve" smooth="yes"/>
      <point x="443" y="477"/>
      <point x="484" y="402"/>
      <point x="484" y="264" type="curve" smooth="yes"/>
      <point x="484" y="122"/>
      <point x="441" y="47"/>
      <point x="362" y="47" type="curve" smooth="yes"/>
      <point x="283" y="47"/>
      <point x="225" y="120"/>
      <point x="225" y="219" type="curve" smooth="yes"/>
    </contour>
    <contour>
      <point x="223" y="830" type="line"/>
      <point x="-1" y="790" type="line"/>
      <point x="-1" y="756" type="line"/>
      <point x="56" y="748"/>
      <point x="64" y="744"/>
      <point x="72" y="724" type="curve" smooth="yes"/>
      <point x="81" y="700"/>
      <point x="85" y="659"/>
      <point x="85" y="595" type="curve" smooth="yes"/>
      <point x="85" y="0" type="line"/>
      <point x="119" y="0" type="line"/>
      <point x="195" y="67" type="line"/>
      <point x="234" y="20"/>
      <point x="303" y="-11"/>
      <point x="376" y="-11" type="curve" smooth="yes"/>
      <point x="518" y="-11"/>
      <point x="636" y="107"/>
      <point x="636" y="266" type="curve" smooth="yes"/>
      <point x="636" y="419"/>
      <point x="528" y="540"/>
      <point x="387" y="540" type="curve" smooth="yes"/>
      <point x="318" y="540"/>
      <point x="261" y="511"/>
      <point x="227" y="461" type="curve"/>
      <point x="223" y="461" type="line"/>
    </contour>
  </outline>
</glyph>
<glyph name="c" format="1">
  <advance width="564"/>
  <unicode hex="0063"/>
  <outline>
    <contour>
      <point x="320" y="651" type="move" name="top"/>
    </contour>
    <contour>
      <point x="293" y="0" type="move" name="bottom"/>
    </contour>
    <contour>
      <point x="502" y="121" type="line"/>
      <point x="453" y="83"/>
      <point x="396" y="61"/>
      <point x="342" y="61" type="curve" smooth="yes"/>
      <point x="246" y="61"/>
      <point x="193" y="139"/>
      <point x="193" y="277" type="curve" smooth="yes"/>
      <point x="193" y="406"/>
      <point x="238" y="482"/>
      <point x="315" y="482" type="curve" smooth="yes"/>
      <point x="349" y="482"/>
      <point x="360" y="473"/>
      <point x="400" y="410" type="curve" smooth="yes"/>
      <point x="423" y="374"/>
      <point x="444" y="359"/>
      <point x="475" y="359" type="curve" smooth="yes"/>
      <point x="512" y="359"/>
      <point x="536" y="383"/>
      <point x="536" y="422" type="curve" smooth="yes"/>
      <point x="536" y="489"/>
      <point x="447" y="540"/>
      <point x="327" y="540" type="curve" smooth="yes"/>
      <point x="156" y="540"/>
      <point x="39" y="428"/>
      <point x="39" y="263" type="curve" smooth="yes"/>
      <point x="39" y="103"/>
      <point x="149" y="-5"/>
      <point x="311" y="-5" type="curve" smooth="yes"/>
      <point x="398" y="-5"/>
      <point x="478" y="27"/>
      <point x="528" y="83" type="curve"/>
    </contour>
  </outline>
</glyph>
<glyph name="e" format="1">
  <advance width="585"/>
  <unicode hex="0065"/>
  <outline>
    <contour>
      <point x="314" y="651" type="move" name="top"/>
    </contour>
    <contour>
      <point x="313" y="0" type="move" name="bottom"/>
    </contour>
    <contour>
      <point x="512" y="128" type="line"/>
      <point x="460" y="81"/>
      <point x="404" y="55"/>
      <point x="348" y="55" type="curve" smooth="yes"/>
      <point x="251" y="55"/>
      <point x="190" y="137"/>
      <point x="190" y="267" type="curve" smooth="yes"/>
      <point x="190" y="283"/>
      <point x="191" y="293"/>
      <point x="194" y="300" type="curve"/>
      <point x="516" y="300" type="line" smooth="yes"/>
      <point x="547" y="300"/>
      <point x="549" y="302"/>
      <point x="549" y="323" type="curve" smooth="yes"/>
      <point x="549" y="459"/>
      <point x="466" y="540"/>
      <point x="325" y="540" type="curve" smooth="yes"/>
      <point x="157" y="540"/>
      <point x="38" y="423"/>
      <point x="38" y="258" type="curve" smooth="yes"/>
      <point x="38" y="99"/>
      <point x="149" y="-10"/>
      <point x="313" y="-10" type="curve" smooth="yes"/>
      <point x="404" y="-10"/>
      <point x="478" y="23"/>
      <point x="540" y="93" type="curve"/>
    </contour>
    <contour>
      <point x="201" y="356" type="line"/>
      <point x="214" y="429"/>
      <point x="264" y="482"/>
      <point x="321" y="482" type="curve" smooth="yes"/>
      <point x="372" y="482"/>
      <point x="409" y="440"/>
      <point x="409" y="382" type="curve" smooth="yes"/>
      <point x="409" y="359"/>
      <point x="400" y="356"/>
      <point x="346" y="356" type="curve" smooth="yes"/>
    </contour>
  </outline>
</glyph>
<glyph name="f" format="1">
  <advance width="443"/>
  <unicode hex="0066"/>
  <outline>
    <contour>
      <point x="17" y="475" type="line"/>
      <point x="125" y="475" type="line"/>
      <point x="125" y="158" type="line" smooth="yes"/>
      <point x="125" y="57"/>
      <point x="115" y="44"/>
      <point x="35" y="40" type="curve"/>
      <point x="35" y="0" type="line"/>
      <point x="373" y="0" type="line"/>
      <point x="373" y="40" type="line"/>
      <point x="285" y="42"/>
      <point x="264" y="66"/>
      <point x="264" y="166" type="curve" smooth="yes"/>
      <point x="264" y="475" type="line"/>
      <point x="433" y="475" type="line"/>
      <point x="433" y="530" type="line"/>
      <point x="264" y="530" type="line"/>
      <point x="264" y="592" type="line" smooth="yes"/>
      <point x="264" y="704"/>
      <point x="297" y="774"/>
      <point x="350" y="774" type="curve" smooth="yes"/>
      <point x="369" y="774"/>
      <point x="386" y="767"/>
      <point x="402" y="748" type="curve" smooth="yes"/>
      <point x="438" y="705"/>
      <point x="450" y="692"/>
      <point x="474" y="692" type="curve" smooth="yes"/>
      <point x="508" y="692"/>
      <point x="534" y="715"/>
      <point x="534" y="745" type="curve" smooth="yes"/>
      <point x="534" y="794"/>
      <point x="468" y="830"/>
      <point x="378" y="830" type="curve" smooth="yes"/>
      <point x="227" y="830"/>
      <point x="125" y="731"/>
      <point x="125" y="586" type="curve" smooth="yes"/>
      <point x="125" y="530" type="line"/>
      <point x="17" y="530" type="line"/>
    </contour>
  </outline>
</glyph>
<glyph name="j" format="1">
  <advance width="331"/>
  <unicode hex="006A"/>
  <outline>
    <contour>
      <point x="173" y="651" type="move" name="top"/>
    </contour>
    <contour>
      <point x="246" y="540" type="line"/>
      <point x="14" y="502" type="line"/>
      <point x="14" y="468" type="line"/>
      <point x="76" y="468"/>
      <point x="92" y="459"/>
      <point x="99" y="428" type="curve" smooth="yes"/>
      <point x="103" y="411"/>
      <point x="107" y="363"/>
      <point x="107" y="290" type="curve" smooth="yes"/>
      <point x="107" y="-78" type="line" smooth="yes"/>
      <point x="107" y="-172"/>
      <point x="82" y="-207"/>
      <point x="33" y="-207" type="curve" smooth="yes"/>
      <point x="-39" y="-207"/>
      <point x="-24" y="-109"/>
      <point x="-99" y="-109" type="curve" smooth="yes"/>
      <point x="-127" y="-109"/>
      <point x="-153" y="-128"/>
      <point x="-153" y="-161" type="curve" smooth="yes"/>
      <point x="-153" y="-217"/>
      <point x="-91" y="-260"/>
      <point x="11" y="-260" type="curve" smooth="yes"/>
      <point x="162" y="-260"/>
      <point x="246" y="-168"/>
      <point x="246" y="-2" type="curve" smooth="yes"/>
    </contour>
    <contour>
      <point x="99" y="752" type="curve" smooth="yes"/>
      <point x="99" y="709"/>
      <point x="133" y="675"/>
      <point x="176" y="675" type="curve" smooth="yes"/>
      <point x="220" y="675"/>
      <point x="254" y="709"/>
      <point x="254" y="752" type="curve" smooth="yes"/>
      <point x="254" y="796"/>
      <point x="220" y="830"/>
      <point x="176" y="830" type="curve" smooth="yes"/>
      <point x="133" y="830"/>
      <point x="99" y="796"/>
    </contour>
  </outline>
</glyph>
<glyph name="l" format="1">
  <advance width="355"/>
  <unicode hex="006C"/>
  <outline>
    <contour>
      <point x="189" y="830" type="move" name="topcap"/>
    </contour>
    <contour>
      <point x="190" y="0" type="move" name="bottom"/>
    </contour>
    <contour>
      <point x="247" y="830" type="line"/>
      <point x="15" y="792" type="line"/>
      <point x="15" y="758" type="line"/>
      <point x="76" y="758"/>
      <point x="94" y="750"/>
      <point x="101" y="717" type="curve" smooth="yes"/>
      <point x="105" y="699"/>
      <point x="108" y="647"/>
      <point x="108" y="570" type="curve" smooth="yes"/>
      <point x="108" y="157" type="line" smooth="yes"/>
      <point x="108" y="63"/>
      <point x="94" y="44"/>
      <point x="19" y="40" type="curve"/>
      <point x="19" y="0" type="line"/>
      <point x="334" y="0" type="line"/>
      <point x="334" y="40" type="line"/>
      <point x="257" y="43"/>
      <point x="247" y="58"/>
      <point x="247" y="164" type="curve" smooth="yes"/>
    </contour>
  </outline>
</glyph>
<glyph name="m" format="1">
  <advance width="1106"/>
  <unicode hex="006D"/>
  <outline>
    <contour>
      <point x="258" y="297" type="line" smooth="yes"/>
      <point x="258" y="341"/>
      <point x="268" y="384"/>
      <point x="285" y="416" type="curve" smooth="yes"/>
      <point x="304" y="452"/>
      <point x="331" y="475"/>
      <point x="375" y="475" type="curve" smooth="yes"/>
      <point x="462" y="475"/>
      <point x="491" y="428"/>
      <point x="491" y="288" type="curve" smooth="yes"/>
      <point x="491" y="157" type="line" smooth="yes"/>
      <point x="491" y="56"/>
      <point x="482" y="45"/>
      <point x="402" y="40" type="curve"/>
      <point x="402" y="0" type="line"/>
      <point x="719" y="0" type="line"/>
      <point x="719" y="40" type="line"/>
      <point x="637" y="45"/>
      <point x="631" y="55"/>
      <point x="631" y="165" type="curve" smooth="yes"/>
      <point x="631" y="297" type="line" smooth="yes"/>
      <point x="631" y="342"/>
      <point x="640" y="383"/>
      <point x="657" y="414" type="curve" smooth="yes"/>
      <point x="677" y="450"/>
      <point x="705" y="475"/>
      <point x="752" y="475" type="curve" smooth="yes"/>
      <point x="835" y="475"/>
      <point x="864" y="427"/>
      <point x="864" y="288" type="curve" smooth="yes"/>
      <point x="864" y="157" type="line" smooth="yes"/>
      <point x="864" y="57"/>
      <point x="855" y="44"/>
      <point x="775" y="40" type="curve"/>
      <point x="775" y="0" type="line"/>
      <point x="1091" y="0" type="line"/>
      <point x="1091" y="40" type="line"/>
      <point x="1012" y="45"/>
      <point x="1004" y="55"/>
      <point x="1004" y="165" type="curve" smooth="yes"/>
      <point x="1004" y="319" type="line" smooth="yes"/>
      <point x="1004" y="406"/>
      <point x="991" y="452"/>
      <point x="965" y="482" type="curve" smooth="yes"/>
      <point x="932" y="519"/>
      <point x="870" y="540"/>
      <point x="791" y="540" type="curve" smooth="yes"/>
      <point x="716" y="540"/>
      <point x="646" y="507"/>
      <point x="598" y="451" type="curve"/>
      <point x="594" y="451" type="line"/>
      <point x="565" y="508"/>
      <point x="508" y="540"/>
      <point x="420" y="540" type="curve" smooth="yes"/>
      <point x="346" y="540"/>
      <point x="293" y="515"/>
      <point x="237" y="453" type="curve"/>
      <point x="231" y="453" type="line"/>
      <point x="219" y="540" type="line"/>
      <point x="26" y="502" type="line"/>
      <point x="26" y="468" type="line"/>
      <point x="90" y="468"/>
      <point x="103" y="462"/>
      <point x="111" y="428" type="curve" smooth="yes"/>
      <point x="116" y="410"/>
      <point x="118" y="357"/>
      <point x="118" y="281" type="curve" smooth="yes"/>
      <point x="118" y="157" type="line" smooth="yes"/>
      <point x="118" y="56"/>
      <point x="108" y="45"/>
      <point x="28" y="40" type="curve"/>
      <point x="28" y="0" type="line"/>
      <point x="344" y="0" type="line"/>
      <point x="344" y="40" type="line"/>
      <point x="264" y="45"/>
      <point x="258" y="54"/>
      <point x="258" y="165" type="curve" smooth="yes"/>
    </contour>
  </outline>
</glyph>
<glyph name="n" format="1">
  <advance width="727"/>
  <unicode hex="006E"/>
  <outline>
    <contour>
      <point x="372" y="651" type="move" name="top"/>
    </contour>
    <contour>
      <point x="372" y="0" type="move" name="bottom"/>
    </contour>
    <contour>
      <point x="257" y="301" type="line" smooth="yes"/>
      <point x="257" y="342"/>
      <point x="267" y="383"/>
      <point x="279" y="407" type="curve" smooth="yes"/>
      <point x="301" y="450"/>
      <point x="331" y="475"/>
      <point x="374" y="475" type="curve" smooth="yes"/>
      <point x="461" y="475"/>
      <point x="490" y="428"/>
      <point x="490" y="292" type="curve" smooth="yes"/>
      <point x="490" y="156" type="line" smooth="yes"/>
      <point x="490" y="57"/>
      <point x="480" y="44"/>
      <point x="401" y="40" type="curve"/>
      <point x="401" y="0" type="line"/>
      <point x="714" y="0" type="line"/>
      <point x="714" y="40" type="line"/>
      <point x="637" y="45"/>
      <point x="629" y="55"/>
      <point x="629" y="163" type="curve" smooth="yes"/>
      <point x="629" y="304" type="line" smooth="yes"/>
      <point x="629" y="389"/>
      <point x="609" y="433"/>
      <point x="586" y="464" type="curve" smooth="yes"/>
      <point x="545" y="518"/>
      <point x="497" y="540"/>
      <point x="412" y="540" type="curve" smooth="yes"/>
      <point x="341" y="540"/>
      <point x="279" y="507"/>
      <point x="235" y="452" type="curve"/>
      <point x="231" y="452" type="line"/>
      <point x="218" y="540" type="line"/>
      <point x="25" y="502" type="line"/>
      <point x="25" y="468" type="line"/>
      <point x="86" y="468"/>
      <point x="103" y="461"/>
      <point x="111" y="426" type="curve" smooth="yes"/>
      <point x="115" y="409"/>
      <point x="118" y="359"/>
      <point x="118" y="281" type="curve" smooth="yes"/>
      <point x="118" y="156" type="line" smooth="yes"/>
      <point x="118" y="56"/>
      <point x="107" y="45"/>
      <point x="29" y="40" type="curve"/>
      <point x="29" y="0" type="line"/>
      <point x="344" y="0" type="line"/>
      <point x="344" y="40" type="line"/>
      <point x="264" y="45"/>
      <point x="257" y="55"/>
      <point x="257" y="163" type="curve" smooth="yes"/>
    </contour>
  </outline>
</glyph>
<glyph name="o" format="1">
  <advance width="660"/>
  <unicode hex="006F"/>
  <outline>
    <contour>
      <point x="329" y="651" type="move" name="top"/>
    </contour>
    <contour>
      <point x="329" y="0" type="move" name="bottom"/>
    </contour>
    <contour>
      <point x="328" y="540" type="curve" smooth="yes"/>
      <point x="170" y="540"/>
      <point x="37" y="427"/>
      <point x="37" y="269" type="curve" smooth="yes"/>
      <point x="37" y="106"/>
      <point x="170" y="-10"/>
      <point x="328" y="-10" type="curve" smooth="yes"/>
      <point x="487" y="-10"/>
      <point x="623" y="107"/>
      <point x="623" y="269" type="curve" smooth="yes"/>
      <point x="623" y="426"/>
      <point x="487" y="540"/>
    </contour>
    <contour>
      <point x="328" y="482" type="curve" smooth="yes"/>
      <point x="411" y="482"/>
      <point x="466" y="395"/>
      <point x="466" y="268" type="curve" smooth="yes"/>
      <point x="466" y="137"/>
      <point x="412" y="51"/>
      <point x="328" y="51" type="curve" smooth="yes"/>
      <point x="246" y="51"/>
      <point x="194" y="136"/>
      <point x="194" y="268" type="curve" smooth="yes"/>
      <point x="194" y="396"/>
      <point x="247" y="482"/>
    </contour>
  </outline>
</glyph>
<glyph name="p" format="1">
  <advance width="697"/>
  <unicode hex="0070"/>
  <outline>
    <contour>
      <point x="218" y="536" type="line"/>
      <point x="17" y="508" type="line"/>
      <point x="17" y="469" type="line"/>
      <point x="73" y="469"/>
      <point x="93" y="459"/>
      <point x="99" y="428" type="curve" smooth="yes"/>
      <point x="103" y="406"/>
      <point x="106" y="343"/>
      <point x="106" y="282" type="curve" smooth="yes"/>
      <point x="106" y="-90" type="line" smooth="yes"/>
      <point x="106" y="-186"/>
      <point x="91" y="-206"/>
      <point x="19" y="-208" type="curve"/>
      <point x="19" y="-250" type="line"/>
      <point x="364" y="-250" type="line"/>
      <point x="364" y="-208" type="line"/>
      <point x="260" y="-205"/>
      <point x="244" y="-189"/>
      <point x="244" y="-83" type="curve" smooth="yes"/>
      <point x="244" y="56" type="line"/>
      <point x="248" y="56" type="line"/>
      <point x="283" y="11"/>
      <point x="330" y="-10"/>
      <point x="396" y="-10" type="curve" smooth="yes"/>
      <point x="549" y="-10"/>
      <point x="659" y="106"/>
      <point x="659" y="265" type="curve" smooth="yes"/>
      <point x="659" y="425"/>
      <point x="549" y="540"/>
      <point x="394" y="540" type="curve" smooth="yes"/>
      <point x="323" y="540"/>
      <point x="266" y="515"/>
      <point x="222" y="465" type="curve"/>
      <point x="218" y="465" type="line"/>
    </contour>
    <contour>
      <point x="388" y="483" type="curve" smooth="yes"/>
      <point x="467" y="483"/>
      <point x="508" y="408"/>
      <point x="508" y="263" type="curve" smooth="yes"/>
      <point x="508" y="123"/>
      <point x="469" y="56"/>
      <point x="388" y="56" type="curve" smooth="yes"/>
      <point x="343" y="56"/>
      <point x="306" y="75"/>
      <point x="281" y="111" type="curve" smooth="yes"/>
      <point x="258" y="144"/>
      <point x="246" y="186"/>
      <point x="246" y="232" type="curve" smooth="yes"/>
      <point x="246" y="300" type="line" smooth="yes"/>
      <point x="246" y="353"/>
      <point x="259" y="402"/>
      <point x="281" y="432" type="curve" smooth="yes"/>
      <point x="304" y="463"/>
      <point x="345" y="483"/>
    </contour>
  </outline>
</glyph>
<glyph name="q" format="1">
  <advance width="674"/>
  <unicode hex="0071"/>
  <outline>
    <contour>
      <point x="449" y="249" type="line" smooth="yes"/>
      <point x="449" y="202"/>
      <point x="441" y="160"/>
      <point x="426" y="128" type="curve" smooth="yes"/>
      <point x="404" y="82"/>
      <point x="362" y="55"/>
      <point x="314" y="55" type="curve" smooth="yes"/>
      <point x="234" y="55"/>
      <point x="190" y="131"/>
      <point x="190" y="269" type="curve" smooth="yes"/>
      <point x="190" y="405"/>
      <point x="235" y="482"/>
      <point x="314" y="482" type="curve" smooth="yes"/>
      <point x="391" y="482"/>
      <point x="449" y="409"/>
      <point x="449" y="311" type="curve" smooth="yes"/>
    </contour>
    <contour>
      <point x="451" y="-92" type="line" smooth="yes"/>
      <point x="451" y="-183"/>
      <point x="425" y="-208"/>
      <point x="328" y="-210" type="curve"/>
      <point x="328" y="-250" type="line"/>
      <point x="686" y="-250" type="line"/>
      <point x="686" y="-210" type="line"/>
      <point x="597" y="-207"/>
      <point x="589" y="-196"/>
      <point x="589" y="-85" type="curve" smooth="yes"/>
      <point x="589" y="530" type="line"/>
      <point x="545" y="530" type="line"/>
      <point x="469" y="472" type="line"/>
      <point x="422" y="517"/>
      <point x="365" y="540"/>
      <point x="298" y="540" type="curve" smooth="yes"/>
      <point x="147" y="540"/>
      <point x="39" y="425"/>
      <point x="39" y="263" type="curve" smooth="yes"/>
      <point x="39" y="105"/>
      <point x="146" y="-10"/>
      <point x="293" y="-10" type="curve" smooth="yes"/>
      <point x="355" y="-10"/>
      <point x="400" y="11"/>
      <point x="446" y="62" type="curve"/>
      <point x="451" y="62" type="line"/>
    </contour>
  </outline>
</glyph>
<glyph name="r" format="1">
  <advance width="498"/>
  <unicode hex="0072"/>
  <outline>
    <contour>
      <point x="289" y="651" type="move" name="top"/>
    </contour>
    <contour>
      <point x="190" y="0" type="move" name="bottom"/>
    </contour>
    <contour>
      <point x="258" y="203" type="line" smooth="yes"/>
      <point x="258" y="252"/>
      <point x="265" y="305"/>
      <point x="276" y="345" type="curve" smooth="yes"/>
      <point x="290" y="401"/>
      <point x="315" y="437"/>
      <point x="340" y="437" type="curve" smooth="yes"/>
      <point x="368" y="437"/>
      <point x="386" y="397"/>
      <point x="427" y="397" type="curve" smooth="yes"/>
      <point x="469" y="397"/>
      <point x="496" y="430"/>
      <point x="496" y="473" type="curve" smooth="yes"/>
      <point x="496" y="512"/>
      <point x="461" y="540"/>
      <point x="410" y="540" type="curve" smooth="yes"/>
      <point x="345" y="540"/>
      <point x="282" y="495"/>
      <point x="246" y="425" type="curve"/>
      <point x="242" y="425" type="line"/>
      <point x="226" y="540" type="line"/>
      <point x="26" y="503" type="line"/>
      <point x="26" y="468" type="line"/>
      <point x="107" y="468"/>
      <point x="119" y="444"/>
      <point x="119" y="279" type="curve" smooth="yes"/>
      <point x="119" y="157" type="line" smooth="yes"/>
      <point x="119" y="56"/>
      <point x="111" y="45"/>
      <point x="30" y="40" type="curve"/>
      <point x="30" y="0" type="line"/>
      <point x="364" y="0" type="line"/>
      <point x="364" y="40" type="line"/>
      <point x="271" y="41"/>
      <point x="258" y="52"/>
      <point x="258" y="155" type="curve" smooth="yes"/>
    </contour>
  </outline>
</glyph>
<glyph name="x" format="1">
  <advance width="648"/>
  <unicode hex="0078"/>
  <outline>
    <contour>
      <point x="353" y="336" type="line"/>
      <point x="282" y="436" type="line" smooth="yes"/>
      <point x="275" y="446"/>
      <point x="271" y="455"/>
      <point x="271" y="462" type="curve" smooth="yes"/>
      <point x="271" y="480"/>
      <point x="289" y="490"/>
      <point x="322" y="490" type="curve"/>
      <point x="322" y="530" type="line"/>
      <point x="17" y="530" type="line"/>
      <point x="17" y="490" type="line"/>
      <point x="50" y="490"/>
      <point x="65" y="486"/>
      <point x="90" y="454" type="curve" smooth="yes"/>
      <point x="257" y="242" type="line"/>
      <point x="118" y="79" type="line" smooth="yes"/>
      <point x="95" y="52"/>
      <point x="51" y="40"/>
      <point x="9" y="40" type="curve"/>
      <point x="9" y="0" type="line"/>
      <point x="260" y="0" type="line"/>
      <point x="260" y="40" type="line"/>
      <point x="217" y="40"/>
      <point x="199" y="49"/>
      <point x="199" y="71" type="curve" smooth="yes"/>
      <point x="199" y="81"/>
      <point x="203" y="92"/>
      <point x="249" y="147" type="curve" smooth="yes"/>
      <point x="293" y="200" type="line"/>
      <point x="351" y="120" type="line" smooth="yes"/>
      <point x="370" y="94"/>
      <point x="379" y="79"/>
      <point x="379" y="64" type="curve" smooth="yes"/>
      <point x="379" y="46"/>
      <point x="366" y="40"/>
      <point x="327" y="40" type="curve"/>
      <point x="327" y="0" type="line"/>
      <point x="645" y="0" type="line"/>
      <point x="645" y="40" type="line"/>
      <point x="601" y="40"/>
      <point x="576" y="51"/>
      <point x="545" y="91" type="curve" smooth="yes"/>
      <point x="387" y="294" type="line"/>
      <point x="489" y="412" type="line" smooth="yes"/>
      <point x="545" y="477"/>
      <point x="571" y="488"/>
      <point x="621" y="490" type="curve"/>
      <point x="621" y="530" type="line"/>
      <point x="391" y="530" type="line"/>
      <point x="391" y="490" type="line"/>
      <point x="427" y="490"/>
      <point x="441" y="483"/>
      <point x="441" y="464" type="curve" smooth="yes"/>
      <point x="441" y="449"/>
      <point x="434" y="440"/>
      <point x="406" y="404" type="curve" smooth="yes"/>
    </contour>
  </outline>
</glyph>
<glyph name="braceleft" format="1">
  <advance width="354"/>
  <unicode hex="007B"/>
  <outline>
    <contour>
      <point x="237" y="198" type="line" smooth="yes"/>
      <point x="237" y="278"/>
      <point x="215" y="326"/>
      <point x="114" y="340" type="curve"/>
      <point x="114" y="345" type="line"/>
      <point x="222" y="363"/>
      <point x="237" y="419"/>
      <point x="237" y="501" type="curve" smooth="yes"/>
      <point x="237" y="675" type="line" smooth="yes"/>
      <point x="237" y="743"/>
      <point x="258" y="782"/>
      <point x="323" y="797" type="curve"/>
      <point x="323" y="830" type="line"/>
      <point x="150" y="830"/>
      <point x="113" y="786"/>
      <point x="113" y="659" type="curve" smooth="yes"/>
      <point x="113" y="489" type="line" smooth="yes"/>
      <point x="113" y="413"/>
      <point x="98" y="375"/>
      <point x="19" y="360" type="curve"/>
      <point x="19" y="325" type="line"/>
      <point x="91" y="319"/>
      <point x="113" y="255"/>
      <point x="113" y="195" type="curve" smooth="yes"/>
      <point x="113" y="4" type="line" smooth="yes"/>
      <point x="113" y="-117"/>
      <point x="163" y="-150"/>
      <point x="328" y="-150" type="curve"/>
      <point x="328" y="-118" type="line"/>
      <point x="256" y="-100"/>
      <point x="237" y="-64"/>
      <point x="237" y="5" type="curve" smooth="yes"/>
    </contour>
  </outline>
</glyph>
<glyph name="bar" format="1">
  <advance width="295"/>
  <unicode hex="007C"/>
  <outline>
    <contour>
      <point x="94" y="820" type="line"/>
      <point x="94" y="-250" type="line"/>
      <point x="201" y="-250" type="line"/>
      <point x="201" y="820" type="line"/>
    </contour>
  </outline>
</glyph>
<glyph name="exclamdown" format="1">
  <advance width="311"/>
  <unicode hex="00A1"/>
  <outline>
    <contour>
      <point x="126" y="563" type="line"/>
      <point x="126" y="441"/>
      <point x="116" y="362"/>
      <point x="106" y="298" type="curve" smooth="yes"/>
      <point x="93" y="217"/>
      <point x="78" y="162"/>
      <point x="78" y="80" type="curve" smooth="yes"/>
      <point x="78" y="20"/>
      <point x="104" y="-10"/>
      <point x="156" y="-10" type="curve" smooth="yes"/>
      <point x="208" y="-10"/>
      <point x="234" y="20"/>
      <point x="234" y="80" type="curve" smooth="yes"/>
      <point x="234" y="162"/>
      <point x="219" y="217"/>
      <point x="206" y="298" type="curve" smooth="yes"/>
      <point x="196" y="362"/>
      <point x="186" y="442"/>
      <point x="186" y="563" type="curve"/>
    </contour>
    <contour>
      <point x="231" y="705" type="curve"/>
      <point x="231" y="748"/>
      <point x="198" y="780"/>
      <point x="155" y="780" type="curve" smooth="yes"/>
      <point x="112" y="780"/>
      <point x="79" y="747"/>
      <point x="79" y="705" type="curve" smooth="yes"/>
      <point x="79" y="663"/>
      <point x="113" y="629"/>
      <point x="155" y="629" type="curve" smooth="yes"/>
      <point x="198" y="629"/>
      <point x="231" y="663"/>
    </contour>
  </outline>
</glyph>
<glyph name="macron" format="1">
  <advance width="326"/>
  <unicode hex="00AF"/>
  <outline>
    <contour>
      <point x="163" y="651" type="move" name="_top"/>
    </contour>
    <contour>
      <point x="305" y="692" type="line"/>
      <point x="305" y="757" type="line"/>
      <point x="21" y="757" type="line"/>
      <point x="21" y="692" type="line"/>
    </contour>
  </outline>
</glyph>
<glyph name="mu" format="1">
  <advance width="744"/>
  <unicode hex="00B5"/>
  <outline>
    <contour>
      <point x="366" y="651" type="move" name="top"/>
    </contour>
    <contour>
      <point x="343" y="0" type="move" name="bottom"/>
    </contour>
    <contour>
      <point x="202" y="92" type="line"/>
      <point x="237" y="22"/>
      <point x="291" y="-10"/>
      <point x="353" y="-10" type="curve" smooth="yes"/>
      <point x="424" y="-10"/>
      <point x="470" y="14"/>
      <point x="499" y="78" type="curve"/>
      <point x="503" y="78" type="line"/>
      <point x="514" y="-11" type="line"/>
      <point x="713" y="1" type="line"/>
      <point x="713" y="40" type="line"/>
      <point x="648" y="40"/>
      <point x="634" y="47"/>
      <point x="628" y="80" type="curve" smooth="yes"/>
      <point x="623" y="104"/>
      <point x="621" y="148"/>
      <point x="621" y="223" type="curve" smooth="yes"/>
      <point x="621" y="530" type="line"/>
      <point x="396" y="530" type="line"/>
      <point x="396" y="490" type="line"/>
      <point x="477" y="482"/>
      <point x="483" y="473"/>
      <point x="483" y="365" type="curve" smooth="yes"/>
      <point x="483" y="272" type="line" smooth="yes"/>
      <point x="483" y="218"/>
      <point x="473" y="161"/>
      <point x="460" y="128" type="curve" smooth="yes"/>
      <point x="435" y="74"/>
      <point x="405" y="55"/>
      <point x="357" y="55" type="curve" smooth="yes"/>
      <point x="286" y="55"/>
      <point x="254" y="115"/>
      <point x="254" y="257" type="curve" smooth="yes"/>
      <point x="254" y="530" type="line"/>
      <point x="30" y="530" type="line"/>
      <point x="30" y="490" type="line"/>
      <point x="111" y="483"/>
      <point x="117" y="474"/>
      <point x="117" y="365" type="curve" smooth="yes"/>
      <point x="117" y="-178" type="line" smooth="yes"/>
      <point x="117" y="-225"/>
      <point x="148" y="-260"/>
      <point x="192" y="-260" type="curve" smooth="yes"/>
      <point x="234" y="-260"/>
      <point x="261" y="-233"/>
      <point x="261" y="-189" type="curve" smooth="yes"/>
      <point x="261" y="-142"/>
      <point x="223" y="10"/>
      <point x="198" y="91" type="curve"/>
    </contour>
  </outline>
</glyph>
<glyph name="periodcentered" format="1">
  <advance width="281"/>
  <unicode hex="00B7"/>
  <outline>
    <contour>
      <point x="65" y="274" type="curve" smooth="yes"/>
      <point x="65" y="233"/>
      <point x="98" y="200"/>
      <point x="140" y="200" type="curve" smooth="yes"/>
      <point x="184" y="200"/>
      <point x="217" y="233"/>
      <point x="217" y="274" type="curve" smooth="yes"/>
      <point x="217" y="317"/>
      <point x="184" y="351"/>
      <point x="140" y="351" type="curve" smooth="yes"/>
      <point x="98" y="351"/>
      <point x="65" y="317"/>
    </contour>
  </outline>
</glyph>
<glyph name="onesuperior" format="1">
  <advance width="249"/>
  <unicode hex="00B9"/>
  <outline>
    <contour>
      <point x="157" y="780" type="line"/>
      <point x="124" y="771"/>
      <point x="84" y="764"/>
      <point x="51" y="763" type="curve"/>
      <point x="51" y="738" type="line"/>
      <point x="79" y="738"/>
      <point x="93" y="736"/>
      <point x="95" y="725" type="curve" smooth="yes"/>
      <point x="97" y="720"/>
      <point x="97" y="698"/>
      <point x="97" y="667" type="curve" smooth="yes"/>
      <point x="97" y="540" type="line" smooth="yes"/>
      <point x="97" y="502"/>
      <point x="91" y="495"/>
      <point x="53" y="493" type="curve"/>
      <point x="53" y="468" type="line"/>
      <point x="201" y="468" type="line"/>
      <point x="201" y="493" type="line"/>
      <point x="163" y="494"/>
      <point x="157" y="502"/>
      <point x="157" y="543" type="curve" smooth="yes"/>
    </contour>
  </outline>
</glyph>
<glyph name="onehalf" format="1">
  <advance width="716"/>
  <unicode hex="00BD"/>
  <outline>
    <contour>
      <point x="679" y="770" type="line"/>
      <point x="608" y="770" type="line"/>
      <point x="28" y="0" type="line"/>
      <point x="108" y="0" type="line"/>
    </contour>
    <component base="onesuperior" xOffset="85"/>
    <component base="twoinferior" xOffset="364"/>
  </outline>
</glyph>
<glyph name="eth" format="1">
  <advance width="661"/>
  <unicode hex="00F0"/>
  <outline>
    <contour>
      <point x="200" y="244" type="curve" smooth="yes"/>
      <point x="200" y="376"/>
      <point x="249" y="454"/>
      <point x="322" y="454" type="curve" smooth="yes"/>
      <point x="403" y="454"/>
      <point x="455" y="374"/>
      <point x="455" y="244" type="curve" smooth="yes"/>
      <point x="455" y="121"/>
      <point x="402" y="45"/>
      <point x="321" y="45" type="curve" smooth="yes"/>
      <point x="249" y="45"/>
      <point x="200" y="118"/>
    </contour>
    <contour>
      <point x="164" y="736" type="line"/>
      <point x="236" y="712"/>
      <point x="274" y="699"/>
      <point x="305" y="675" type="curve"/>
      <point x="181" y="609" type="line"/>
      <point x="205" y="566" type="line"/>
      <point x="345" y="642" type="line"/>
      <point x="406" y="589"/>
      <point x="447" y="516"/>
      <point x="475" y="414" type="curve"/>
      <point x="472" y="412" type="line"/>
      <point x="443" y="478"/>
      <point x="386" y="513"/>
      <point x="311" y="513" type="curve" smooth="yes"/>
      <point x="155" y="513"/>
      <point x="39" y="394"/>
      <point x="39" y="244" type="curve" smooth="yes"/>
      <point x="39" y="98"/>
      <point x="162" y="-10"/>
      <point x="320" y="-10" type="curve" smooth="yes"/>
      <point x="492" y="-10"/>
      <point x="619" y="122"/>
      <point x="619" y="308" type="curve" smooth="yes"/>
      <point x="619" y="459"/>
      <point x="550" y="598"/>
      <point x="416" y="680" type="curve"/>
      <point x="532" y="744" type="line"/>
      <point x="502" y="787" type="line"/>
      <point x="366" y="712" type="line"/>
      <point x="317" y="740"/>
      <point x="249" y="762"/>
      <point x="184" y="780" type="curve"/>
    </contour>
  </outline>
</glyph>
<glyph name="oslash" format="1">
  <advance width="658"/>
  <unicode hex="00F8"/>
  <outline>
    <contour>
      <point x="646" y="592" type="line"/>
      <point x="565" y="592" type="line"/>
      <point x="23" y="-61" type="line"/>
      <point x="103" y="-61" type="line"/>
    </contour>
    <component base="o" xOffset="-1"/>
  </outline>
</glyph>
<glyph name="thorn" format="1">
  <advance width="674"/>
  <unicode hex="00FE"/>
  <outline>
    <contour>
      <point x="85" y="-97" type="line" smooth="yes"/>
      <point x="85" y="-194"/>
      <point x="70" y="-212"/>
      <point x="-13" y="-215" type="curve"/>
      <point x="-13" y="-250" type="line"/>
      <point x="347" y="-250" type="line"/>
      <point x="347" y="-215" type="line"/>
      <point x="243" y="-212"/>
      <point x="227" y="-196"/>
      <point x="227" y="-90" type="curve" smooth="yes"/>
      <point x="227" y="56" type="line"/>
      <point x="264" y="10"/>
      <point x="309" y="-11"/>
      <point x="371" y="-11" type="curve" smooth="yes"/>
      <point x="520" y="-11"/>
      <point x="636" y="111"/>
      <point x="636" y="268" type="curve" smooth="yes"/>
      <point x="636" y="422"/>
      <point x="527" y="540"/>
      <point x="385" y="540" type="curve" smooth="yes"/>
      <point x="316" y="540"/>
      <point x="263" y="513"/>
      <point x="227" y="459" type="curve"/>
      <point x="223" y="459" type="line"/>
      <point x="223" y="830" type="line"/>
      <point x="-11" y="790" type="line"/>
      <point x="-11" y="755" type="line"/>
      <point x="50" y="747"/>
      <point x="64" y="741"/>
      <point x="72" y="723" type="curve" smooth="yes"/>
      <point x="81" y="703"/>
      <point x="85" y="658"/>
      <point x="85" y="594" type="curve" smooth="yes"/>
    </contour>
    <contour>
      <point x="225" y="298" type="line" smooth="yes"/>
      <point x="225" y="338"/>
      <point x="232" y="369"/>
      <point x="248" y="403" type="curve" smooth="yes"/>
      <point x="274" y="455"/>
      <point x="306" y="477"/>
      <point x="355" y="477" type="curve" smooth="yes"/>
      <point x="441" y="477"/>
      <point x="485" y="405"/>
      <point x="485" y="263" type="curve" smooth="yes"/>
      <point x="485" y="122"/>
      <point x="440" y="47"/>
      <point x="357" y="47" type="curve" smooth="yes"/>
      <point x="279" y="47"/>
      <point x="225" y="113"/>
      <point x="225" y="209" type="curve" smooth="yes"/>
    </contour>
  </outline>
</glyph>
<glyph name="dcroat" format="1">
  <advance width="694"/>
  <unicode hex="0111"/>
  <outline>
    <contour>
      <point x="660" y="601" type="line"/>
      <point x="660" y="651" type="line"/>
      <point x="367" y="651" type="line"/>
      <point x="367" y="601" type="line"/>
    </contour>
    <component base="d"/>
  </outline>
</glyph>
<glyph name="gcommaaccent" format="1">
  <advance width="610"/>
  <unicode hex="0123"/>
  <outline>
    <contour>
      <point x="327" y="856" type="line"/>
      <point x="258" y="817"/>
      <point x="232" y="775"/>
      <point x="232" y="730" type="curve" smooth="yes"/>
      <point x="232" y="680"/>
      <point x="256" y="651"/>
      <point x="298" y="651" type="curve" smooth="yes"/>
      <point x="341" y="651"/>
      <point x="370" y="680"/>
      <point x="370" y="711" type="curve" smooth="yes"/>
      <point x="370" y="741"/>
      <point x="349" y="761"/>
      <point x="324" y="761" type="curve" smooth="yes"/>
      <point x="312" y="761"/>
      <point x="303" y="758"/>
      <point x="297" y="753" type="curve"/>
      <point x="297" y="778"/>
      <point x="315" y="803"/>
      <point x="355" y="825" type="curve"/>
    </contour>
    <component base="g"/>
  </outline>
</glyph>
<glyph name="Lslash" format="1">
  <advance width="757"/>
  <unicode hex="0141"/>
  <outline>
    <contour>
      <point x="67" y="260" type="line"/>
      <point x="67" y="334" type="line"/>
      <point x="407" y="537" type="line"/>
      <point x="407" y="463" type="line"/>
    </contour>
    <component base="L" xOffset="2"/>
  </outline>
</glyph>
<glyph name="tbar" format="1">
  <advance width="385"/>
  <unicode hex="0167"/>
  <outline>
    <contour>
      <point x="342" y="331" type="line"/>
      <point x="342" y="381" type="line"/>
      <point x="49" y="381" type="line"/>
      <point x="49" y="331" type="line"/>
    </contour>
    <component base="t" xOffset="3"/>
  </outline>
</glyph>
<glyph name="caron" format="1">
  <advance width="386"/>
  <unicode hex="02C7"/>
  <outline>
    <contour>
      <point x="193" y="651" type="move" name="_top"/>
    </contour>
    <contour>
      <point x="245" y="651" type="line"/>
      <point x="365" y="800" type="line"/>
      <point x="313" y="800" type="line"/>
      <point x="193" y="732" type="line"/>
      <point x="73" y="800" type="line"/>
      <point x="21" y="800" type="line"/>
      <point x="141" y="651" type="line"/>
    </contour>
  </outline>
</glyph>
<glyph name="ogonek" format="1">
  <advance width="278"/>
  <unicode hex="02DB"/>
  <outline>
    <contour>
      <point x="174" y="0" type="move" name="_bottom"/>
    </contour>
    <contour>
      <point x="231" y="-116" type="line"/>
      <point x="205" y="-149"/>
      <point x="171" y="-169"/>
      <point x="142" y="-169" type="curve" smooth="yes"/>
      <point x="113" y="-169"/>
      <point x="93" y="-150"/>
      <point x="93" y="-124" type="curve" smooth="yes"/>
      <point x="93" y="-83"/>
      <point x="144" y="-32"/>
      <point x="217" y="0" type="curve"/>
      <point x="217" y="5" type="line"/>
      <point x="155" y="5" type="line"/>
      <point x="50" y="-33"/>
      <point x="-10" y="-89"/>
      <point x="-10" y="-151" type="curve" smooth="yes"/>
      <point x="-10" y="-210"/>
      <point x="26" y="-239"/>
      <point x="100" y="-239" type="curve" smooth="yes"/>
      <point x="164" y="-239"/>
      <point x="223" y="-208"/>
      <point x="266" y="-152" type="curve"/>
    </contour>
  </outline>
</glyph>
<glyph name="endash" format="1">
  <advance width="730"/>
  <unicode hex="2013"/>
  <outline>
    <contour>
      <point x="664" y="243" type="line"/>
      <point x="664" y="336" type="line"/>
      <point x="66" y="336" type="line"/>
      <point x="66" y="243" type="line"/>
    </contour>
  </outline>
</glyph>
<glyph name="emdash" format="1">
  <advance width="1138"/>
  <unicode hex="2014"/>
  <outline>
    <contour>
      <point x="1072" y="243" type="line"/>
      <point x="1072" y="336" type="line"/>
      <point x="66" y="336" type="line"/>
      <point x="66" y="243" type="line"/>
    </contour>
  </outline>
</glyph>
<glyph name="quotesinglbase" format="1">
  <advance width="261"/>
  <unicode hex="201A"/>
  <outline>
    <contour>
      <point x="85" y="-184" type="line"/>
      <point x="165" y="-124"/>
      <point x="207" y="-56"/>
      <point x="207" y="12" type="curve" smooth="yes"/>
      <point x="207" y="69"/>
      <point x="178" y="106"/>
      <point x="132" y="106" type="curve" smooth="yes"/>
      <point x="88" y="106"/>
      <point x="55" y="73"/>
      <point x="55" y="29" type="curve" smooth="yes"/>
      <point x="55" y="-7"/>
      <point x="78" y="-35"/>
      <point x="109" y="-35" type="curve" smooth="yes"/>
      <point x="116" y="-35"/>
      <point x="126" y="-34"/>
      <point x="131" y="-32" type="curve"/>
      <point x="131" y="-65"/>
      <point x="104" y="-105"/>
      <point x="56" y="-142" type="curve"/>
    </contour>
  </outline>
</glyph>
<glyph name="daggerdbl" format="1">
  <advance width="596"/>
  <unicode hex="2021"/>
  <outline>
    <contour>
      <point x="393" y="261" type="curve"/>
      <point x="346" y="316"/>
      <point x="323" y="367"/>
      <point x="323" y="464" type="curve"/>
      <point x="409" y="455"/>
      <point x="437" y="419"/>
      <point x="481" y="419" type="curve" smooth="yes"/>
      <point x="524" y="419"/>
      <point x="556" y="450"/>
      <point x="556" y="491" type="curve" smooth="yes"/>
      <point x="556" y="532"/>
      <point x="524" y="563"/>
      <point x="481" y="563" type="curve" smooth="yes"/>
      <point x="437" y="563"/>
      <point x="410" y="527"/>
      <point x="323" y="517" type="curve"/>
      <point x="329" y="629"/>
      <point x="374" y="657"/>
      <point x="374" y="708" type="curve" smooth="yes"/>
      <point x="374" y="749"/>
      <point x="342" y="780"/>
      <point x="299" y="780" type="curve" smooth="yes"/>
      <point x="256" y="780"/>
      <point x="224" y="749"/>
      <point x="224" y="708" type="curve" smooth="yes"/>
      <point x="224" y="656"/>
      <point x="270" y="628"/>
      <point x="274" y="517" type="curve"/>
      <point x="186" y="526"/>
      <point x="158" y="563"/>
      <point x="115" y="563" type="curve" smooth="yes"/>
      <point x="72" y="563"/>
      <point x="40" y="532"/>
      <point x="40" y="491" type="curve" smooth="yes"/>
      <point x="40" y="450"/>
      <point x="72" y="419"/>
      <point x="115" y="419" type="curve" smooth="yes"/>
      <point x="159" y="419"/>
      <point x="187" y="455"/>
      <point x="275" y="464" type="curve"/>
      <point x="274" y="367"/>
      <point x="252" y="316"/>
      <point x="205" y="261" type="curve"/>
      <point x="251" y="204"/>
      <point x="272" y="153"/>
      <point x="273" y="56" type="curve"/>
      <point x="186" y="65"/>
      <point x="159" y="101"/>
      <point x="115" y="101" type="curve" smooth="yes"/>
      <point x="72" y="101"/>
      <point x="40" y="70"/>
      <point x="40" y="29" type="curve" smooth="yes"/>
      <point x="40" y="-12"/>
      <point x="72" y="-43"/>
      <point x="115" y="-43" type="curve" smooth="yes"/>
      <point x="158" y="-43"/>
      <point x="185" y="-6"/>
      <point x="272" y="3" type="curve"/>
      <point x="268" y="-108"/>
      <point x="224" y="-136"/>
      <point x="224" y="-188" type="curve" smooth="yes"/>
      <point x="224" y="-229"/>
      <point x="256" y="-260"/>
      <point x="299" y="-260" type="curve" smooth="yes"/>
      <point x="342" y="-260"/>
      <point x="374" y="-229"/>
      <point x="374" y="-188" type="curve" smooth="yes"/>
      <point x="374" y="-137"/>
      <point x="330" y="-109"/>
      <point x="325" y="3" type="curve"/>
      <point x="411" y="-7"/>
      <point x="437" y="-43"/>
      <point x="481" y="-43" type="curve" smooth="yes"/>
      <point x="524" y="-43"/>
      <point x="556" y="-12"/>
      <point x="556" y="29" type="curve" smooth="yes"/>
      <point x="556" y="70"/>
      <point x="524" y="101"/>
      <point x="481" y="101" type="curve" smooth="yes"/>
      <point x="437" y="101"/>
      <point x="410" y="65"/>
      <point x="325" y="56" type="curve"/>
      <point x="325" y="153"/>
      <point x="347" y="206"/>
    </contour>
  </outline>
</glyph>
<glyph name="fraction" format="1">
  <advance width="40"/>
  <unicode hex="2044"/>
  <outline>
    <contour>
      <point x="346" y="770" type="line"/>
      <point x="275" y="770" type="line"/>
      <point x="-305" y="0" type="line"/>
      <point x="-225" y="0" type="line"/>
    </contour>
  </outline>
</glyph>
<glyph name="sevensuperior" format="1">
  <advance width="231"/>
  <unicode hex="2077"/>
  <outline>
    <contour>
      <point x="122" y="626" type="line" smooth="yes"/>
      <point x="57" y="511"/>
      <point x="49" y="495"/>
      <point x="49" y="481" type="curve" smooth="yes"/>
      <point x="49" y="468"/>
      <point x="55" y="458"/>
      <point x="73" y="458" type="curve" smooth="yes"/>
      <point x="91" y="458"/>
      <point x="107" y="468"/>
      <point x="120" y="502" type="curve" smooth="yes"/>
      <point x="154" y="591"/>
      <point x="168" y="634"/>
      <point x="227" y="762" type="curve"/>
      <point x="227" y="770" type="line"/>
      <point x="99" y="770" type="line" smooth="yes"/>
      <point x="72" y="770"/>
      <point x="66" y="772"/>
      <point x="66" y="782" type="curve" smooth="yes"/>
      <point x="66" y="785"/>
      <point x="67" y="792"/>
      <point x="68" y="794" type="curve"/>
      <point x="46" y="794" type="line"/>
      <point x="17" y="682" type="line"/>
      <point x="38" y="682" type="line"/>
      <point x="44" y="698" type="line" smooth="yes"/>
      <point x="56" y="722"/>
      <point x="62" y="725"/>
      <point x="106" y="725" type="curve" smooth="yes"/>
      <point x="174" y="725" type="line"/>
    </contour>
  </outline>
</glyph>
<glyph name="ninesuperior" format="1">
  <advance width="298"/>
  <unicode hex="2079"/>
  <outline>
    <contour>
      <point x="28" y="670" type="curve" smooth="yes"/>
      <point x="28" y="619"/>
      <point x="72" y="578"/>
      <point x="128" y="578" type="curve" smooth="yes"/>
      <point x="156" y="578"/>
      <point x="181" y="589"/>
      <point x="198" y="614" type="curve"/>
      <point x="202" y="611" type="line"/>
      <point x="202" y="542"/>
      <point x="172" y="497"/>
      <point x="137" y="497" type="curve" smooth="yes"/>
      <point x="98" y="497"/>
      <point x="101" y="536"/>
      <point x="67" y="536" type="curve" smooth="yes"/>
      <point x="52" y="536"/>
      <point x="42" y="526"/>
      <point x="42" y="511" type="curve" smooth="yes"/>
      <point x="42" y="485"/>
      <point x="81" y="464"/>
      <point x="127" y="464" type="curve" smooth="yes"/>
      <point x="206" y="464"/>
      <point x="269" y="542"/>
      <point x="269" y="638" type="curve" smooth="yes"/>
      <point x="269" y="723"/>
      <point x="220" y="780"/>
      <point x="148" y="780" type="curve" smooth="yes"/>
      <point x="81" y="780"/>
      <point x="28" y="732"/>
    </contour>
    <contour>
      <point x="196" y="658" type="line"/>
      <point x="178" y="625"/>
      <point x="162" y="612"/>
      <point x="141" y="612" type="curve" smooth="yes"/>
      <point x="113" y="612"/>
      <point x="100" y="634"/>
      <point x="100" y="679" type="curve" smooth="yes"/>
      <point x="100" y="730"/>
      <point x="117" y="757"/>
      <point x="148" y="757" type="curve" smooth="yes"/>
      <point x="180" y="757"/>
      <point x="196" y="730"/>
      <point x="196" y="678" type="curve" smooth="yes"/>
    </contour>
  </outline>
</glyph>
<glyph name="zeroinferior" format="1">
  <advance width="316"/>
  <unicode hex="2080"/>
  <outline>
    <contour>
      <point x="158" y="306" type="curve" smooth="yes"/>
      <point x="88" y="306"/>
      <point x="29" y="236"/>
      <point x="29" y="146" type="curve" smooth="yes"/>
      <point x="29" y="59"/>
      <point x="88" y="-10"/>
      <point x="158" y="-10" type="curve" smooth="yes"/>
      <point x="228" y="-10"/>
      <point x="287" y="59"/>
      <point x="287" y="146" type="curve" smooth="yes"/>
      <point x="287" y="236"/>
      <point x="228" y="306"/>
    </contour>
    <contour>
      <point x="158" y="25" type="curve" smooth="yes"/>
      <point x="123" y="25"/>
      <point x="104" y="52"/>
      <point x="104" y="144" type="curve" smooth="yes"/>
      <point x="104" y="241"/>
      <point x="123" y="271"/>
      <point x="158" y="271" type="curve" smooth="yes"/>
      <point x="193" y="271"/>
      <point x="212" y="241"/>
      <point x="212" y="144" type="curve" smooth="yes"/>
      <point x="212" y="52"/>
      <point x="192" y="25"/>
    </contour>
  </outline>
</glyph>
<glyph name="oneinferior" format="1">
  <advance width="249"/>
  <unicode hex="2081"/>
  <outline>
    <contour>
      <point x="157" y="312" type="line"/>
      <point x="124" y="303"/>
      <point x="84" y="296"/>
      <point x="51" y="295" type="curve"/>
      <point x="51" y="270" type="line"/>
      <point x="79" y="270"/>
      <point x="93" y="268"/>
      <point x="95" y="257" type="curve"/>
      <point x="97" y="252"/>
      <point x="97" y="230"/>
      <point x="97" y="199" type="curve" smooth="yes"/>
      <point x="97" y="72" type="line" smooth="yes"/>
      <point x="97" y="34"/>
      <point x="91" y="27"/>
      <point x="53" y="25" type="curve"/>
      <point x="53" y="0" type="line"/>
      <point x="201" y="0" type="line"/>
      <point x="201" y="25" type="line"/>
      <point x="163" y="26"/>
      <point x="157" y="34"/>
      <point x="157" y="75" type="curve" smooth="yes"/>
    </contour>
  </outline>
</glyph>
<glyph name="fourinferior" format="1">
  <advance width="283"/>
  <unicode hex="2084"/>
  <outline>
    <contour>
      <point x="12" y="102" type="line"/>
      <point x="167" y="312" type="line"/>
      <point x="198" y="312" type="line"/>
      <point x="198" y="101" type="line"/>
      <point x="233" y="102"/>
      <point x="237" y="106"/>
      <point x="237" y="137" type="curve"/>
      <point x="256" y="137" type="line"/>
      <point x="256" y="43" type="line"/>
      <point x="237" y="43" type="line"/>
      <point x="237" y="68"/>
      <point x="232" y="72"/>
      <point x="198" y="73" type="curve"/>
      <point x="198" y="65" type="line" smooth="yes"/>
      <point x="198" y="28"/>
      <point x="203" y="21"/>
      <point x="231" y="20" type="curve"/>
      <point x="231" y="0" type="line"/>
      <point x="87" y="0" type="line"/>
      <point x="87" y="20" type="line"/>
      <point x="125" y="22"/>
      <point x="131" y="28"/>
      <point x="131" y="62" type="curve" smooth="yes"/>
      <point x="131" y="72" type="line"/>
      <point x="12" y="72" type="line"/>
    </contour>
    <contour>
      <point x="131" y="213" type="line"/>
      <point x="127" y="213" type="line"/>
      <point x="47" y="102" type="line"/>
      <point x="131" y="102" type="line"/>
    </contour>
  </outline>
</glyph>
<glyph name="fiveinferior" format="1">
  <advance width="265"/>
  <unicode hex="2085"/>
  <outline>
    <contour>
      <point x="113" y="253" type="line"/>
      <point x="148" y="253" type="line" smooth="yes"/>
      <point x="191" y="253"/>
      <point x="221" y="273"/>
      <point x="228" y="306" type="curve"/>
      <point x="224" y="306" type="line"/>
      <point x="210" y="302"/>
      <point x="184" y="299"/>
      <point x="154" y="299" type="curve" smooth="yes"/>
      <point x="129" y="299"/>
      <point x="111" y="302"/>
      <point x="101" y="306" type="curve"/>
      <point x="56" y="141" type="line" smooth="yes"/>
      <point x="55" y="139"/>
      <point x="55" y="137"/>
      <point x="55" y="135" type="curve" smooth="yes"/>
      <point x="55" y="128"/>
      <point x="60" y="125"/>
      <point x="68" y="125" type="curve" smooth="yes"/>
      <point x="76" y="125"/>
      <point x="80" y="129"/>
      <point x="85" y="141" type="curve" smooth="yes"/>
      <point x="94" y="160"/>
      <point x="111" y="171"/>
      <point x="132" y="171" type="curve" smooth="yes"/>
      <point x="152" y="171"/>
      <point x="164" y="151"/>
      <point x="164" y="119" type="curve" smooth="yes"/>
      <point x="164" y="56"/>
      <point x="142" y="23"/>
      <point x="100" y="23" type="curve" smooth="yes"/>
      <point x="46" y="23"/>
      <point x="75" y="78"/>
      <point x="35" y="78" type="curve" smooth="yes"/>
      <point x="20" y="78"/>
      <point x="12" y="70"/>
      <point x="12" y="54" type="curve" smooth="yes"/>
      <point x="12" y="17"/>
      <point x="50" y="-10"/>
      <point x="102" y="-10" type="curve" smooth="yes"/>
      <point x="177" y="-10"/>
      <point x="237" y="41"/>
      <point x="237" y="105" type="curve" smooth="yes"/>
      <point x="237" y="159"/>
      <point x="194" y="203"/>
      <point x="142" y="203" type="curve" smooth="yes"/>
      <point x="123" y="203"/>
      <point x="107" y="197"/>
      <point x="98" y="186" type="curve"/>
      <point x="97" y="190" type="line"/>
    </contour>
  </outline>
</glyph>
<glyph name="Euro" format="1">
  <advance width="762"/>
  <unicode hex="20AC"/>
  <outline>
    <contour>
      <point x="520" y="358" type="line"/>
      <point x="295" y="358" type="line"/>
      <point x="295" y="367"/>
      <point x="295" y="377"/>
      <point x="294" y="387" type="curve" smooth="yes"/>
      <point x="294" y="401"/>
      <point x="295" y="416"/>
      <point x="297" y="430" type="curve"/>
      <point x="520" y="430" type="line"/>
      <point x="520" y="490" type="line"/>
      <point x="300" y="490" type="line"/>
      <point x="318" y="645"/>
      <point x="377" y="722"/>
      <point x="468" y="722" type="curve" smooth="yes"/>
      <point x="546" y="722"/>
      <point x="600" y="655"/>
      <point x="623" y="534" type="curve"/>
      <point x="678" y="534" type="line"/>
      <point x="678" y="770" type="line"/>
      <point x="639" y="770" type="line"/>
      <point x="621" y="719" type="line"/>
      <point x="562" y="769"/>
      <point x="528" y="780"/>
      <point x="464" y="780" type="curve" smooth="yes"/>
      <point x="295" y="780"/>
      <point x="169" y="677"/>
      <point x="131" y="490" type="curve"/>
      <point x="37" y="490" type="line"/>
      <point x="37" y="430" type="line"/>
      <point x="125" y="430" type="line"/>
      <point x="123" y="416"/>
      <point x="122" y="402"/>
      <point x="122" y="388" type="curve" smooth="yes"/>
      <point x="122" y="378"/>
      <point x="122" y="368"/>
      <point x="123" y="358" type="curve"/>
      <point x="38" y="358" type="line"/>
      <point x="38" y="298" type="line"/>
      <point x="128" y="298" type="line"/>
      <point x="161" y="108"/>
      <point x="285" y="-10"/>
      <point x="452" y="-10" type="curve" smooth="yes"/>
      <point x="527" y="-10"/>
      <point x="588" y="16"/>
      <point x="636" y="69" type="curve"/>
      <point x="648" y="0" type="line"/>
      <point x="694" y="0" type="line"/>
      <point x="694" y="270" type="line"/>
      <point x="639" y="270" type="line"/>
      <point x="627" y="138"/>
      <point x="556" y="48"/>
      <point x="460" y="48" type="curve" smooth="yes"/>
      <point x="365" y="48"/>
      <point x="298" y="149"/>
      <point x="298" y="298" type="curve"/>
      <point x="520" y="298" type="line"/>
    </contour>
  </outline>
</glyph>
<glyph name="servicemark" format="1">
  <advance width="806"/>
  <unicode hex="2120"/>
  <outline>
    <contour>
      <point x="68" y="472" type="line"/>
      <point x="83" y="472" type="line"/>
      <point x="94" y="492" type="line"/>
      <point x="117" y="473"/>
      <point x="139" y="464"/>
      <point x="170" y="464" type="curve" smooth="yes"/>
      <point x="226" y="464"/>
      <point x="286" y="493"/>
      <point x="286" y="554" type="curve" smooth="yes"/>
      <point x="286" y="602"/>
      <point x="265" y="627"/>
      <point x="178" y="664" type="curve" smooth="yes"/>
      <point x="137" y="681"/>
      <point x="125" y="694"/>
      <point x="125" y="716" type="curve" smooth="yes"/>
      <point x="125" y="740"/>
      <point x="147" y="750"/>
      <point x="170" y="750" type="curve" smooth="yes"/>
      <point x="201" y="750"/>
      <point x="221" y="736"/>
      <point x="235" y="695" type="curve"/>
      <point x="258" y="695" type="line"/>
      <point x="258" y="774" type="line"/>
      <point x="247" y="774" type="line"/>
      <point x="235" y="756" type="line"/>
      <point x="213" y="773"/>
      <point x="192" y="780"/>
      <point x="169" y="780" type="curve" smooth="yes"/>
      <point x="120" y="780"/>
      <point x="74" y="750"/>
      <point x="74" y="696" type="curve" smooth="yes"/>
      <point x="74" y="651"/>
      <point x="95" y="623"/>
      <point x="166" y="594" type="curve" smooth="yes"/>
      <point x="217" y="573"/>
      <point x="229" y="559"/>
      <point x="229" y="536" type="curve" smooth="yes"/>
      <point x="229" y="508"/>
      <point x="203" y="494"/>
      <point x="171" y="494" type="curve" smooth="yes"/>
      <point x="122" y="494"/>
      <point x="99" y="526"/>
      <point x="92" y="562" type="curve"/>
      <point x="68" y="562" type="line"/>
    </contour>
    <contour>
      <point x="615" y="770" type="line"/>
      <point x="736" y="770" type="line"/>
      <point x="736" y="745" type="line"/>
      <point x="700" y="745"/>
      <point x="694" y="733"/>
      <point x="694" y="684" type="curve" smooth="yes"/>
      <point x="694" y="548" type="line" smooth="yes"/>
      <point x="694" y="495"/>
      <point x="700" y="488"/>
      <point x="740" y="487" type="curve"/>
      <point x="740" y="462" type="line"/>
      <point x="585" y="462" type="line"/>
      <point x="585" y="487" type="line"/>
      <point x="626" y="488"/>
      <point x="631" y="495"/>
      <point x="631" y="545" type="curve" smooth="yes"/>
      <point x="631" y="720" type="line"/>
      <point x="627" y="720" type="line"/>
      <point x="511" y="458" type="line"/>
      <point x="498" y="458" type="line"/>
      <point x="389" y="720" type="line"/>
      <point x="385" y="720" type="line"/>
      <point x="385" y="548" type="line" smooth="yes"/>
      <point x="385" y="495"/>
      <point x="391" y="488"/>
      <point x="431" y="487" type="curve"/>
      <point x="431" y="462" type="line"/>
      <point x="303" y="462" type="line"/>
      <point x="303" y="487" type="line"/>
      <point x="343" y="488"/>
      <point x="349" y="495"/>
      <point x="349" y="545" type="curve" smooth="yes"/>
      <point x="349" y="687" type="line" smooth="yes"/>
      <point x="349" y="732"/>
      <point x="343" y="745"/>
      <point x="307" y="745" type="curve"/>
      <point x="307" y="770" type="line"/>
      <point x="439" y="770" type="line"/>
      <point x="524" y="559" type="line"/>
    </contour>
  </outline>
</glyph>
<glyph name="fiveeighths" format="1">
  <advance width="713"/>
  <unicode hex="215D"/>
  <outline>
    <contour>
      <point x="683" y="770" type="line"/>
      <point x="612" y="770" type="line"/>
      <point x="32" y="0" type="line"/>
      <point x="112" y="0" type="line"/>
    </contour>
    <component base="eightinferior" xOffset="368"/>
    <component base="fivesuperior" xOffset="67"/>
  </outline>
</glyph>
<glyph name="f_l" format="1">
  <advance width="707"/>
  <unicode hex="FB02"/>
  <outline>
    <contour>
      <point x="599" y="830" type="line"/>
      <point x="516" y="804" type="line"/>
      <point x="488" y="819"/>
      <point x="428" y="830"/>
      <point x="374" y="830" type="curve" smooth="yes"/>
      <point x="216" y="830"/>
      <point x="121" y="739"/>
      <point x="121" y="586" type="curve" smooth="yes"/>
      <point x="121" y="514" type="line"/>
      <point x="18" y="514" type="line"/>
      <point x="18" y="457" type="line"/>
      <point x="121" y="457" type="line"/>
      <point x="121" y="158" type="line" smooth="yes"/>
      <point x="121" y="58"/>
      <point x="112" y="44"/>
      <point x="47" y="40" type="curve"/>
      <point x="47" y="0" type="line"/>
      <point x="344" y="0" type="line"/>
      <point x="344" y="40" type="line"/>
      <point x="277" y="42"/>
      <point x="260" y="67"/>
      <point x="260" y="166" type="curve" smooth="yes"/>
      <point x="260" y="457" type="line"/>
      <point x="375" y="457" type="line"/>
      <point x="375" y="514" type="line"/>
      <point x="260" y="514" type="line"/>
      <point x="260" y="592" type="line" smooth="yes"/>
      <point x="260" y="644"/>
      <point x="265" y="681"/>
      <point x="276" y="711" type="curve" smooth="yes"/>
      <point x="291" y="751"/>
      <point x="317" y="772"/>
      <point x="352" y="772" type="curve" smooth="yes"/>
      <point x="386" y="772"/>
      <point x="427" y="752"/>
      <point x="460" y="718" type="curve"/>
      <point x="460" y="154" type="line" smooth="yes"/>
      <point x="460" y="61"/>
      <point x="449" y="43"/>
      <point x="391" y="40" type="curve"/>
      <point x="391" y="0" type="line"/>
      <point x="686" y="0" type="line"/>
      <point x="686" y="40" type="line"/>
      <point x="611" y="43"/>
      <point x="599" y="60"/>
      <point x="599" y="161" type="curve" smooth="yes"/>
    </contour>
  </outline>
</glyph>
<glyph name="dotaccent.cap" format="1">
  <advance width="173"/>
  <outline>
    <contour>
      <point x="86" y="830" type="move" name="_topcap"/>
    </contour>
    <contour>
      <point x="20" y="893" type="curve" smooth="yes"/>
      <point x="20" y="859"/>
      <point x="51" y="830"/>
      <point x="86" y="830" type="curve" smooth="yes"/>
      <point x="125" y="830"/>
      <point x="156" y="859"/>
      <point x="156" y="893" type="curve" smooth="yes"/>
      <point x="156" y="930"/>
      <point x="125" y="959"/>
      <point x="86" y="959" type="curve" smooth="yes"/>
      <point x="51" y="959"/>
      <point x="20" y="930"/>
    </contour>
  </outline>
</glyph>
<glyph name="f_f_k" format="1">
  <advance width="1362"/>
  <outline>
    <contour>
      <point x="1056" y="0" type="line"/>
      <point x="1367" y="0" type="line"/>
      <point x="1367" y="40" type="line"/>
      <point x="1323" y="40"/>
      <point x="1297" y="49"/>
      <point x="1264" y="96" type="curve" smooth="yes"/>
      <point x="1091" y="341" type="line"/>
      <point x="1188" y="432" type="line" smooth="yes"/>
      <point x="1234" y="475"/>
      <point x="1268" y="490"/>
      <point x="1318" y="490" type="curve"/>
      <point x="1318" y="530" type="line"/>
      <point x="1045" y="530" type="line"/>
      <point x="1045" y="490" type="line"/>
      <point x="1117" y="490"/>
      <point x="1132" y="485"/>
      <point x="1132" y="474" type="curve" smooth="yes"/>
      <point x="1132" y="462"/>
      <point x="1115" y="440"/>
      <point x="1036" y="365" type="curve" smooth="yes"/>
      <point x="940" y="274" type="line"/>
      <point x="940" y="830" type="line"/>
      <point x="879" y="801" type="line"/>
      <point x="846" y="819"/>
      <point x="795" y="830"/>
      <point x="732" y="830" type="curve" smooth="yes"/>
      <point x="641" y="830"/>
      <point x="547" y="801"/>
      <point x="498" y="757" type="curve"/>
      <point x="463" y="781"/>
      <point x="431" y="790"/>
      <point x="381" y="790" type="curve" smooth="yes"/>
      <point x="225" y="790"/>
      <point x="126" y="696"/>
      <point x="126" y="546" type="curve" smooth="yes"/>
      <point x="126" y="514" type="line"/>
      <point x="19" y="514" type="line"/>
      <point x="19" y="457" type="line"/>
      <point x="126" y="457" type="line"/>
      <point x="126" y="158" type="line" smooth="yes"/>
      <point x="126" y="57"/>
      <point x="116" y="44"/>
      <point x="37" y="40" type="curve"/>
      <point x="37" y="0" type="line"/>
      <point x="340" y="0" type="line"/>
      <point x="340" y="40" type="line"/>
      <point x="280" y="42"/>
      <point x="265" y="67"/>
      <point x="265" y="166" type="curve" smooth="yes"/>
      <point x="265" y="457" type="line"/>
      <point x="462" y="457" type="line"/>
      <point x="462" y="158" type="line" smooth="yes"/>
      <point x="462" y="59"/>
      <point x="453" y="43"/>
      <point x="391" y="40" type="curve"/>
      <point x="391" y="0" type="line"/>
      <point x="685" y="0" type="line"/>
      <point x="685" y="40" type="line"/>
      <point x="617" y="42"/>
      <point x="601" y="66"/>
      <point x="601" y="166" type="curve" smooth="yes"/>
      <point x="601" y="457" type="line"/>
      <point x="733" y="457" type="line"/>
      <point x="733" y="514" type="line"/>
      <point x="601" y="514" type="line"/>
      <point x="601" y="592" type="line" smooth="yes"/>
      <point x="601" y="730"/>
      <point x="641" y="772"/>
      <point x="698" y="772" type="curve" smooth="yes"/>
      <point x="730" y="772"/>
      <point x="770" y="758"/>
      <point x="803" y="725" type="curve"/>
      <point x="803" y="157" type="line" smooth="yes"/>
      <point x="803" y="62"/>
      <point x="785" y="40"/>
      <point x="714" y="40" type="curve"/>
      <point x="714" y="0" type="line"/>
      <point x="1009" y="0" type="line"/>
      <point x="1009" y="40" type="line"/>
      <point x="954" y="40"/>
      <point x="940" y="61"/>
      <point x="940" y="164" type="curve" smooth="yes"/>
      <point x="940" y="203" type="line"/>
      <point x="990" y="251" type="line"/>
      <point x="1078" y="113" type="line" smooth="yes"/>
      <point x="1105" y="71"/>
      <point x="1108" y="64"/>
      <point x="1108" y="56" type="curve" smooth="yes"/>
      <point x="1108" y="44"/>
      <point x="1097" y="40"/>
      <point x="1056" y="40" type="curve"/>
    </contour>
    <contour>
      <point x="265" y="514" type="line"/>
      <point x="265" y="552" type="line" smooth="yes"/>
      <point x="265" y="666"/>
      <point x="286" y="732"/>
      <point x="349" y="732" type="curve" smooth="yes"/>
      <point x="387" y="732"/>
      <point x="418" y="718"/>
      <point x="462" y="660" type="curve"/>
      <point x="462" y="514" type="line"/>
    </contour>
  </outline>
</glyph>
<glyph name="f_f_t" format="1">
  <advance width="1093"/>
  <outline>
    <contour>
      <point x="809" y="475" type="line"/>
      <point x="809" y="112" type="line" smooth="yes"/>
      <point x="809" y="35"/>
      <point x="863" y="-10"/>
      <point x="955" y="-10" type="curve" smooth="yes"/>
      <point x="1023" y="-10"/>
      <point x="1069" y="15"/>
      <point x="1087" y="61" type="curve"/>
      <point x="1066" y="90" type="line"/>
      <point x="1052" y="65"/>
      <point x="1034" y="54"/>
      <point x="1007" y="54" type="curve" smooth="yes"/>
      <point x="965" y="54"/>
      <point x="948" y="86"/>
      <point x="948" y="168" type="curve" smooth="yes"/>
      <point x="948" y="475" type="line"/>
      <point x="1063" y="475" type="line"/>
      <point x="1063" y="530" type="line"/>
      <point x="948" y="530" type="line"/>
      <point x="948" y="651" type="line"/>
      <point x="897" y="651" type="line"/>
      <point x="875" y="591"/>
      <point x="806" y="530"/>
      <point x="741" y="530" type="curve" smooth="yes"/>
      <point x="599" y="530" type="line"/>
      <point x="599" y="592" type="line" smooth="yes"/>
      <point x="599" y="730"/>
      <point x="639" y="772"/>
      <point x="696" y="772" type="curve" smooth="yes"/>
      <point x="716" y="772"/>
      <point x="728" y="763"/>
      <point x="755" y="728" type="curve" smooth="yes"/>
      <point x="775" y="702"/>
      <point x="798" y="688"/>
      <point x="830" y="688" type="curve" smooth="yes"/>
      <point x="857" y="688"/>
      <point x="880" y="705"/>
      <point x="880" y="741" type="curve" smooth="yes"/>
      <point x="880" y="795"/>
      <point x="821" y="830"/>
      <point x="730" y="830" type="curve" smooth="yes"/>
      <point x="639" y="830"/>
      <point x="545" y="801"/>
      <point x="496" y="757" type="curve"/>
      <point x="461" y="781"/>
      <point x="429" y="790"/>
      <point x="379" y="790" type="curve" smooth="yes"/>
      <point x="223" y="790"/>
      <point x="124" y="696"/>
      <point x="124" y="546" type="curve" smooth="yes"/>
      <point x="124" y="530" type="line"/>
      <point x="17" y="530" type="line"/>
      <point x="17" y="475" type="line"/>
      <point x="124" y="475" type="line"/>
      <point x="124" y="158" type="line" smooth="yes"/>
      <point x="124" y="57"/>
      <point x="117" y="40"/>
      <point x="35" y="40" type="curve"/>
      <point x="35" y="0" type="line"/>
      <point x="338" y="0" type="line"/>
      <point x="338" y="40" type="line"/>
      <point x="279" y="40"/>
      <point x="263" y="67"/>
      <point x="263" y="166" type="curve" smooth="yes"/>
      <point x="263" y="475" type="line"/>
      <point x="460" y="475" type="line"/>
      <point x="460" y="158" type="line" smooth="yes"/>
      <point x="460" y="59"/>
      <point x="452" y="40"/>
      <point x="399" y="40" type="curve"/>
      <point x="399" y="0" type="line"/>
      <point x="698" y="0" type="line"/>
      <point x="698" y="40" type="line"/>
      <point x="619" y="40"/>
      <point x="599" y="66"/>
      <point x="599" y="166" type="curve" smooth="yes"/>
      <point x="599" y="475" type="line"/>
    </contour>
    <contour>
      <point x="263" y="530" type="line"/>
      <point x="263" y="552" type="line" smooth="yes"/>
      <point x="263" y="666"/>
      <point x="284" y="732"/>
      <point x="347" y="732" type="curve" smooth="yes"/>
      <point x="385" y="732"/>
      <point x="416" y="718"/>
      <point x="460" y="660" type="curve"/>
      <point x="460" y="530" type="line"/>
    </contour>
  </outline>
</glyph>
<glyph name="macron.cap" format="1">
  <advance width="326"/>
  <outline>
    <contour>
      <point x="163" y="830" type="move" name="_topcap"/>
    </contour>
    <contour>
      <point x="305" y="865" type="line"/>
      <point x="305" y="930" type="line"/>
      <point x="21" y="930" type="line"/>
      <point x="21" y="865" type="line"/>
    </contour>
  </outline>
</glyph>
<glyph name="s_p" format="1">
  <advance width="1132"/>
  <outline>
    <contour>
      <point x="107" y="35" type="line"/>
      <point x="137" y="6"/>
      <point x="189" y="-10"/>
      <point x="248" y="-10" type="curve" smooth="yes"/>
      <point x="358" y="-10"/>
      <point x="430" y="51"/>
      <point x="430" y="143" type="curve" smooth="yes"/>
      <point x="430" y="212"/>
      <point x="394" y="257"/>
      <point x="279" y="324" type="curve" smooth="yes"/>
      <point x="198" y="370"/>
      <point x="173" y="393"/>
      <point x="173" y="432" type="curve" smooth="yes"/>
      <point x="173" y="464"/>
      <point x="197" y="487"/>
      <point x="232" y="487" type="curve" smooth="yes"/>
      <point x="302" y="487"/>
      <point x="305" y="394"/>
      <point x="373" y="394" type="curve" smooth="yes"/>
      <point x="408" y="394"/>
      <point x="434" y="419"/>
      <point x="434" y="452" type="curve" smooth="yes"/>
      <point x="434" y="481"/>
      <point x="409" y="506"/>
      <point x="370" y="524" type="curve" smooth="yes"/>
      <point x="317" y="548"/>
      <point x="294" y="580"/>
      <point x="294" y="626" type="curve" smooth="yes"/>
      <point x="294" y="687"/>
      <point x="344" y="732"/>
      <point x="410" y="732" type="curve" smooth="yes"/>
      <point x="478" y="732"/>
      <point x="527" y="668"/>
      <point x="580" y="668" type="curve"/>
      <point x="551" y="591"/>
      <point x="540" y="529"/>
      <point x="540" y="450" type="curve" smooth="yes"/>
      <point x="540" y="-90" type="line" smooth="yes"/>
      <point x="540" y="-186"/>
      <point x="525" y="-206"/>
      <point x="453" y="-208" type="curve"/>
      <point x="453" y="-250" type="line"/>
      <point x="798" y="-250" type="line"/>
      <point x="798" y="-208" type="line"/>
      <point x="694" y="-205"/>
      <point x="678" y="-189"/>
      <point x="678" y="-83" type="curve" smooth="yes"/>
      <point x="678" y="56" type="line"/>
      <point x="682" y="56" type="line"/>
      <point x="717" y="11"/>
      <point x="764" y="-10"/>
      <point x="830" y="-10" type="curve" smooth="yes"/>
      <point x="983" y="-10"/>
      <point x="1093" y="106"/>
      <point x="1093" y="265" type="curve" smooth="yes"/>
      <point x="1093" y="425"/>
      <point x="983" y="540"/>
      <point x="828" y="540" type="curve" smooth="yes"/>
      <point x="757" y="540"/>
      <point x="700" y="515"/>
      <point x="656" y="465" type="curve"/>
      <point x="652" y="465" type="line"/>
      <point x="652" y="658" type="line"/>
      <point x="681" y="658"/>
      <point x="714" y="696"/>
      <point x="714" y="731" type="curve" smooth="yes"/>
      <point x="714" y="762"/>
      <point x="695" y="782"/>
      <point x="657" y="782" type="curve" smooth="yes"/>
      <point x="624" y="782"/>
      <point x="602" y="761"/>
      <point x="594" y="719" type="curve"/>
      <point x="550" y="719"/>
      <point x="501" y="790"/>
      <point x="411" y="790" type="curve" smooth="yes"/>
      <point x="315" y="790"/>
      <point x="237" y="716"/>
      <point x="237" y="624" type="curve" smooth="yes"/>
      <point x="237" y="596"/>
      <point x="247" y="566"/>
      <point x="266" y="545" type="curve"/>
      <point x="254" y="545" type="line" smooth="yes"/>
      <point x="135" y="545"/>
      <point x="58" y="483"/>
      <point x="58" y="386" type="curve" smooth="yes"/>
      <point x="58" y="316"/>
      <point x="94" y="274"/>
      <point x="200" y="213" type="curve" smooth="yes"/>
      <point x="290" y="160"/>
      <point x="306" y="133"/>
      <point x="306" y="102" type="curve" smooth="yes"/>
      <point x="306" y="66"/>
      <point x="277" y="44"/>
      <point x="228" y="44" type="curve" smooth="yes"/>
      <point x="160" y="44"/>
      <point x="119" y="87"/>
      <point x="96" y="182" type="curve"/>
      <point x="54" y="182" type="line"/>
      <point x="54" y="0" type="line"/>
      <point x="85" y="0" type="line"/>
    </contour>
    <contour>
      <point x="822" y="483" type="curve" smooth="yes"/>
      <point x="901" y="483"/>
      <point x="942" y="408"/>
      <point x="942" y="263" type="curve" smooth="yes"/>
      <point x="942" y="123"/>
      <point x="903" y="56"/>
      <point x="822" y="56" type="curve" smooth="yes"/>
      <point x="734" y="56"/>
      <point x="680" y="135"/>
      <point x="680" y="232" type="curve" smooth="yes"/>
      <point x="680" y="300" type="line" smooth="yes"/>
      <point x="680" y="413"/>
      <point x="731" y="483"/>
    </contour>
  </outline>
</glyph>
